<svg width="299" height="84" viewBox="0 0 299 84" fill="none" xmlns="http://www.w3.org/2000/svg">
<path d="M285.498 53.7082C286.234 54.0978 286.817 54.515 287.249 54.96L284.315 58.1103C283.884 57.6653 283.357 57.278 282.735 56.9484C281.49 56.2891 280.164 56.2174 278.757 56.7332C277.377 57.264 275.827 58.3716 274.107 60.0559L265.948 72.4419L262.131 70.4194L276.02 49.335L279.328 51.0879L276.879 55.414C280.024 52.8985 282.897 52.3299 285.498 53.7082Z" fill="#F8DFB8"/>
<path d="M257.235 61.9728C256.757 62.8786 256.532 63.6142 256.558 64.1796C256.599 64.7166 256.84 65.217 257.28 65.6809L255.075 67.9148C254.016 67.2578 253.296 66.537 252.917 65.7527C252.537 64.9683 252.491 63.9962 252.778 62.8364C250.082 64.4638 247.378 64.7027 244.668 63.5533C242.606 62.6788 241.292 61.3768 240.726 59.6474C240.174 57.8897 240.443 55.9776 241.533 53.9113C242.787 51.5335 244.552 50.0655 246.829 49.5071C249.106 48.9488 251.747 49.3068 254.752 50.5811L257.757 51.8554L258.764 49.9447C259.585 48.3879 259.836 47.1261 259.516 46.1594C259.241 45.1769 258.353 44.367 256.85 43.7299C255.23 43.0427 253.135 42.6394 250.567 42.52L251.005 39.4327C254.135 39.5131 256.819 40.0281 259.058 40.9776C264.096 43.114 265.339 46.6024 262.787 51.4428L257.235 61.9728ZM247.118 61.0596C249.181 61.9342 251.369 61.442 253.682 59.5831L256.458 54.3181L253.895 53.2312C250.065 51.607 247.337 52.3376 245.71 55.4231C245.009 56.7535 244.781 57.9037 245.027 58.8737C245.272 59.8437 245.969 60.5724 247.118 61.0596Z" fill="#F8DFB8"/>
<path d="M235.335 32.3677C237.262 32.9617 238.52 34.0513 239.109 35.6362C239.728 37.2306 239.626 39.1035 238.801 41.2548L232.22 58.4204L228.092 57.1474L234.484 40.4748C235.068 38.9509 235.211 37.7755 234.913 36.9484C234.656 36.1009 234.008 35.5168 232.969 35.1962C230.95 34.5738 228.577 35.4124 225.849 37.7118L219.423 54.4741L215.294 53.2011L227.976 20.1247L232.276 20.9495L227.172 34.2607C228.552 33.2494 229.902 32.5801 231.225 32.2528C232.559 31.8956 233.929 31.9339 235.335 32.3677Z" fill="#F8DFB8"/>
<path d="M208.352 45.8533C208.104 46.8467 208.059 47.6201 208.217 48.1736C208.383 48.6961 208.733 49.1415 209.266 49.5097L207.662 52.1704C206.485 51.738 205.621 51.173 205.071 50.4753C204.521 49.7777 204.248 48.8262 204.253 47.6207C202.032 49.7824 199.478 50.5729 196.592 49.9923C194.396 49.5505 192.822 48.5328 191.869 46.9392C190.925 45.3145 190.736 43.369 191.303 41.1028C191.955 38.4952 193.314 36.6819 195.382 35.6631C197.449 34.6443 200.082 34.4568 203.282 35.1005L206.482 35.7442L207.006 33.6488C207.433 31.9414 207.379 30.6425 206.844 29.7523C206.348 28.8374 205.3 28.219 203.7 27.8971C201.974 27.55 199.858 27.5807 197.35 27.9892L197.049 24.8473C200.089 24.2851 202.801 24.2439 205.185 24.7235C210.55 25.8027 212.568 28.9965 211.241 34.305L208.352 45.8533ZM198.372 47.0246C200.568 47.4664 202.565 46.5312 204.362 44.2192L205.806 38.445L203.077 37.896C198.999 37.0755 196.536 38.3572 195.69 41.7409C195.325 43.2 195.375 44.3838 195.84 45.2925C196.304 46.2011 197.149 46.7785 198.372 47.0246Z" fill="#F8DFB8"/>
<path d="M179.994 20.9221C182 21.1211 183.478 21.9428 184.428 23.3873C185.414 24.8031 185.764 26.6702 185.478 28.9887L183.228 47.2345L178.929 46.8081L181.114 29.0863C181.314 27.4666 181.186 26.2805 180.731 25.5281C180.28 24.744 179.497 24.2966 178.383 24.1861C176.281 23.9776 174.186 25.2809 172.099 28.0957L169.902 45.9128L165.603 45.4864L168.692 20.4282L172.418 20.7977L172.294 24.5467C174.593 21.8492 177.16 20.6411 179.994 20.9221Z" fill="#F8DFB8"/>
<path d="M137.316 19.5494C140.225 19.4262 142.865 20.2751 145.236 22.0963L143.548 24.714C142.488 24.0543 141.501 23.5677 140.587 23.2541C139.673 22.9405 138.721 22.8047 137.73 22.8467C136.419 22.9022 135.397 23.2658 134.663 23.9374C133.96 24.5757 133.637 25.4381 133.694 26.5246C133.749 27.5791 134.145 28.3951 134.88 28.9724C135.648 29.5484 137.055 30.1133 139.103 30.6671C141.671 31.359 143.56 32.2558 144.772 33.3575C145.984 34.4591 146.642 36.0166 146.748 38.0298C146.873 40.3945 146.108 42.3005 144.454 43.7477C142.798 45.163 140.676 45.9254 138.086 46.0351C134.665 46.18 131.712 45.1682 129.226 42.9995L131.306 40.5094C133.406 42.0538 135.575 42.7787 137.813 42.6839C139.22 42.6243 140.336 42.2247 141.163 41.4851C141.989 40.7455 142.369 39.7526 142.304 38.5063C142.256 37.6115 142.059 36.8993 141.71 36.3696C141.394 35.8385 140.825 35.3822 140.004 35.0007C139.213 34.5858 138.054 34.1705 136.526 33.7548C134.086 33.0575 132.309 32.1719 131.195 31.0982C130.081 30.0244 129.479 28.6247 129.388 26.8991C129.317 25.557 129.606 24.3437 130.254 23.2594C130.901 22.1751 131.833 21.3029 133.048 20.643C134.263 19.983 135.685 19.6185 137.316 19.5494Z" fill="#F8DFB8"/>
<path d="M123.204 32.7809C123.314 33.4438 123.405 34.1899 123.478 35.0192L108.919 36.9617C109.527 39.849 110.463 41.8701 111.724 43.0247C112.98 44.1478 114.512 44.5887 116.32 44.3475C117.462 44.1952 118.448 43.8861 119.279 43.4204C120.141 42.9504 120.998 42.2552 121.851 41.3348L124.17 43.5906C122.169 45.9873 119.677 47.3845 116.695 47.7823C113.428 48.2182 110.705 47.4361 108.525 45.4359C106.372 43.4 104.957 40.3458 104.282 36.2735C103.606 32.2011 103.929 28.8669 105.249 26.2707C106.564 23.643 108.744 22.1259 111.789 21.7197C114.802 21.3176 117.295 22.082 119.269 24.0129C121.238 25.9121 122.549 28.8348 123.204 32.7809ZM118.852 32.0546C117.988 26.8458 115.828 24.472 112.37 24.9333C110.784 25.1449 109.641 25.975 108.942 27.4236C108.236 28.8407 108.064 31.0256 108.424 33.9784L118.939 32.5755L118.852 32.0546Z" fill="#F8DFB8"/>
<path d="M86.0997 26.2151C88.0613 25.7497 89.7771 26.0323 91.2471 27.0628C92.7391 28.0553 93.8156 29.6718 94.4765 31.9123L99.6778 49.5452L95.4745 50.5425L90.4226 33.416C89.9609 31.8507 89.3658 30.7932 88.6373 30.2436C87.8998 29.6632 86.9861 29.5023 85.8964 29.7609C83.8414 30.2484 82.3988 32.1342 81.5685 35.4182L86.6475 52.6367L82.4442 53.634L75.301 29.4176L78.9438 28.5533L80.33 32.0667C81.4054 28.8231 83.3287 26.8725 86.0997 26.2151Z" fill="#F8DFB8"/>
<path d="M67.0203 31.6618L68.2624 34.6283L64.0727 55.489L75.4451 51.6591L76.4075 55.0734L60.9411 60.2821L59.699 57.3156L63.8887 36.4549L53.517 39.9478L52.1452 36.6714L67.0203 31.6618Z" fill="#F8DFB8"/>
<path d="M44.1956 39.6999L55.7172 62.1658L51.7236 63.8131L40.202 41.3473L44.1956 39.6999ZM36.7666 29.9313C37.5357 29.614 38.2811 29.5998 39.0026 29.8886C39.7538 30.1652 40.3119 30.6595 40.6769 31.3713C41.042 32.0832 41.112 32.7787 40.8869 33.458C40.6473 34.1089 40.1281 34.599 39.3294 34.9285C38.5602 35.2457 37.8074 35.2803 37.0708 35.0322C36.3493 34.7434 35.806 34.243 35.4409 33.5312C35.0758 32.8193 35.0058 32.1238 35.2309 31.4445C35.4855 30.753 35.9974 30.2486 36.7666 29.9313Z" fill="#F8DFB8"/>
<path d="M30.1226 54.1944C34.8417 52.7082 38.4388 53.9086 40.9137 57.7956C42.598 60.4409 42.9127 62.8927 41.8579 65.1511C40.803 67.4094 38.6236 69.3847 35.3197 71.0767L27.8004 74.9275L10.0636 47.0709L16.4294 43.8108C19.8188 42.075 22.803 41.3342 25.3821 41.5883C27.9611 41.8425 29.9811 43.1168 31.442 45.4111C32.4904 47.0577 32.8655 48.6553 32.5674 50.204C32.2806 51.7111 31.4657 53.0412 30.1226 54.1944ZM15.8673 47.9108L21.5905 56.8994L25.2647 55.0178C26.9166 54.1718 27.9491 53.124 28.3621 51.8744C28.7864 50.5833 28.5432 49.2224 27.6323 47.7918C26.6354 46.2262 25.4009 45.355 23.9287 45.1783C22.4849 44.987 20.7235 45.4238 18.6443 46.4886L15.8673 47.9108ZM33.4804 68.0991C35.5596 67.0343 36.914 65.8395 37.5436 64.5149C38.156 63.1632 37.895 61.5966 36.7607 59.8151C34.5264 56.306 31.4013 55.5798 27.3853 57.6365L23.3693 59.6932L29.8917 69.937L33.4804 68.0991Z" fill="#F8DFB8"/>
</svg>
