<svg width="383" height="81" viewBox="0 0 383 81" fill="none" xmlns="http://www.w3.org/2000/svg">
<path d="M23.0991 46.77C27.9618 46.4762 30.9228 48.5716 31.9822 53.0561C32.7031 56.1081 32.2125 58.6243 30.5102 60.6047C28.8079 62.5851 26.1504 64.002 22.5378 64.8554L14.3161 66.7976L6.72397 34.6582L13.6844 33.0139C17.3904 32.1385 20.4018 32.1505 22.7187 33.0499C25.0355 33.9494 26.5066 35.7227 27.1319 38.3698C27.5807 40.2695 27.4191 41.9518 26.6471 43.4165C25.899 44.8427 24.7163 45.9605 23.0991 46.77ZM11.8519 36.9486L14.3017 47.3192L18.3191 46.3702C20.1254 45.9435 21.4202 45.1608 22.2034 44.0223C23.0104 42.8452 23.219 41.4314 22.829 39.7808C22.4024 37.9746 21.5328 36.799 20.2204 36.2541C18.9391 35.7019 17.1618 35.6943 14.8883 36.2313L11.8519 36.9486ZM21.779 61.4342C24.0524 60.8972 25.6934 60.0492 26.702 58.8903C27.7032 57.7003 27.9611 56.0775 27.4755 54.0221C26.5192 49.9735 23.8454 48.4679 19.4543 49.5052L15.0631 50.5425L17.855 62.3612L21.779 61.4342Z" fill="#F8DFB8"/>
<path d="M62.171 56.5442L58.4937 57.2481L57.5451 53.5688C56.37 56.7912 54.3366 58.6791 51.4451 59.2325C49.465 59.6115 47.786 59.265 46.4079 58.193C45.0298 57.1209 44.1302 55.4849 43.7091 53.2848L40.2169 35.04L44.4599 34.2279L47.8798 52.0955C48.1566 53.5413 48.6283 54.5587 49.2949 55.1479C49.987 55.6997 50.883 55.8703 51.983 55.6597C54.0888 55.2567 55.6313 53.5279 56.6105 50.4733L53.1816 32.5585L57.4246 31.7464L62.171 56.5442Z" fill="#F8DFB8"/>
<path d="M78.0639 27.736C80.9431 27.2998 83.6496 27.8608 86.1835 29.4188L84.7611 32.2073C83.6433 31.6646 82.615 31.2864 81.6764 31.0726C80.7378 30.8587 79.7781 30.8261 78.7973 30.9747C77.5001 31.1712 76.5197 31.6433 75.8562 32.3911C75.2196 33.1025 74.9828 33.9961 75.1457 35.0718C75.3039 36.1159 75.7765 36.8858 76.5636 37.3815C77.3824 37.8724 78.8363 38.2833 80.9254 38.6141C83.5448 39.0264 85.5102 39.7158 86.8217 40.6823C88.1333 41.6488 88.94 43.1286 89.242 45.1219C89.5966 47.4632 89.0228 49.4435 87.5203 51.0628C86.0131 52.6504 83.9781 53.6384 81.4154 54.0266C78.03 54.5394 74.9965 53.85 72.3149 51.9582L74.1386 49.2546C76.3763 50.5663 78.6025 51.0543 80.8172 50.7188C82.2093 50.508 83.2798 49.9898 84.0286 49.1643C84.7774 48.3389 85.0584 47.3092 84.8714 46.0752C84.7373 45.1894 84.4712 44.5014 84.0734 44.0115C83.7071 43.5168 83.0974 43.1237 82.2441 42.8322C81.4176 42.5043 80.225 42.2156 78.666 41.9663C76.1733 41.5348 74.321 40.8444 73.1092 39.8952C71.8973 38.946 71.162 37.6172 70.9032 35.9087C70.7019 34.5798 70.8702 33.3406 71.4081 32.1911C71.946 31.0416 72.7864 30.0728 73.9292 29.2847C75.0721 28.4967 76.4503 27.9804 78.0639 27.736Z" fill="#F8DFB8"/>
<path d="M102.352 25.082L105.385 50.1472L101.096 50.6662L98.0636 25.601L102.352 25.082ZM98.7781 13.5237C99.604 13.4238 100.304 13.6131 100.877 14.0916C101.483 14.5663 101.834 15.2008 101.93 15.995C102.026 16.7892 101.852 17.4871 101.409 18.0887C100.963 18.6585 100.31 18.9952 99.4526 19.099C98.6267 19.199 97.9129 19.0275 97.3113 18.5845C96.7377 18.106 96.4028 17.4696 96.3067 16.6754C96.2107 15.8812 96.3841 15.1833 96.827 14.5817C97.3017 13.9763 97.9521 13.6236 98.7781 13.5237Z" fill="#F8DFB8"/>
<path d="M127.821 21.8678C129.829 21.6925 131.449 22.2256 132.682 23.4671C133.944 24.6739 134.676 26.4409 134.879 28.7681L136.478 47.0824L132.174 47.4581L130.622 29.6698C130.48 28.0439 130.107 26.904 129.504 26.25C128.898 25.5641 128.037 25.2698 126.921 25.3672C124.817 25.5509 123.036 27.2162 121.576 30.3631L123.137 48.2471L118.833 48.6227L116.638 23.4704L120.367 23.1448L121.028 26.8454C122.719 23.7747 124.983 22.1155 127.821 21.8678Z" fill="#F8DFB8"/>
<path d="M166.633 32.0226C166.664 32.6939 166.667 33.4466 166.642 34.2807L151.969 34.9599C152.233 37.8948 152.923 39.9931 154.039 41.2549C155.153 42.4847 156.621 43.0574 158.443 42.9731C159.594 42.9198 160.608 42.6966 161.487 42.3036C162.398 41.9091 163.33 41.2893 164.284 40.4443L166.32 42.8968C164.052 45.116 161.416 46.2952 158.411 46.4343C155.118 46.5867 152.509 45.5703 150.581 43.385C148.685 41.1664 147.641 37.9952 147.45 33.8717C147.259 29.7481 147.971 26.4476 149.587 23.9703C151.2 21.461 153.542 20.1353 156.61 19.9932C159.647 19.8527 162.031 20.8315 163.762 22.9297C165.491 24.9959 166.448 28.0269 166.633 32.0226ZM162.402 30.9211C162.158 25.6468 160.293 23.0902 156.809 23.2515C155.211 23.3255 153.979 24.0552 153.114 25.4407C152.248 26.7942 151.82 28.9604 151.83 31.9391L162.426 31.4486L162.402 30.9211Z" fill="#F8DFB8"/>
<path d="M184.673 19.2207C187.585 19.1949 190.186 20.132 192.475 22.0318L190.673 24.5918C189.643 23.8969 188.678 23.3774 187.779 23.0334C186.88 22.6893 185.935 22.5217 184.943 22.5304C183.631 22.542 182.594 22.8712 181.831 23.518C181.101 24.1325 180.74 24.9837 180.75 26.0717C180.759 27.1276 181.118 27.9565 181.828 28.5582C182.569 29.1597 183.951 29.7715 185.972 30.3936C188.507 31.1712 190.356 32.1309 191.518 33.2727C192.68 34.4145 193.27 35.9933 193.288 38.0092C193.309 40.3771 192.461 42.2567 190.746 43.6479C189.03 45.0072 186.876 45.6982 184.284 45.7212C180.86 45.7514 177.954 44.6411 175.566 42.3901L177.753 39.9707C179.783 41.5848 181.918 42.382 184.158 42.3621C185.566 42.3497 186.699 41.9877 187.557 41.2761C188.414 40.5644 188.838 39.5847 188.827 38.3367C188.819 37.4407 188.652 36.7222 188.328 36.181C188.035 35.6396 187.486 35.1644 186.683 34.7555C185.911 34.3143 184.771 33.8604 183.263 33.3937C180.856 32.615 179.119 31.6703 178.053 30.5597C176.988 29.4491 176.447 28.0298 176.432 26.3018C176.42 24.9579 176.761 23.7548 177.456 22.6926C178.15 21.6305 179.119 20.7899 180.362 20.1709C181.604 19.5518 183.041 19.2351 184.673 19.2207Z" fill="#F8DFB8"/>
<path d="M211.431 19.4547C214.342 19.532 216.907 20.5604 219.127 22.54L217.237 25.0347C216.232 24.3038 215.286 23.7505 214.4 23.3748C213.513 22.9992 212.574 22.7982 211.583 22.7719C210.271 22.7371 209.223 23.0294 208.438 23.6488C207.686 24.2371 207.296 25.075 207.267 26.1626C207.239 27.2183 207.569 28.0593 208.257 28.6858C208.976 29.3131 210.335 29.9734 212.333 30.6666C214.839 31.5334 216.653 32.5579 217.774 33.74C218.895 34.9222 219.429 36.5209 219.375 38.5362C219.312 40.9033 218.399 42.7518 216.635 44.0814C214.872 45.3791 212.695 45.9936 210.104 45.9248C206.681 45.834 203.816 44.6216 201.509 42.2876L203.78 39.947C205.752 41.6319 207.858 42.504 210.097 42.5635C211.505 42.6008 212.65 42.2791 213.532 41.5982C214.414 40.9174 214.872 39.9532 214.905 38.7057C214.929 37.81 214.788 37.086 214.483 36.5337C214.209 35.9822 213.678 35.488 212.889 35.0509C212.133 34.5827 211.01 34.0887 209.519 33.569C207.142 32.7056 205.44 31.7001 204.414 30.5525C203.388 29.4049 202.898 27.9673 202.944 26.24C202.979 24.8964 203.363 23.7062 204.095 22.6692C204.826 21.6323 205.824 20.8265 207.088 20.2518C208.352 19.6771 209.799 19.4114 211.431 19.4547Z" fill="#F8DFB8"/>
<path d="M251.619 48.1675C250.088 48.0454 248.913 47.4862 248.093 46.4899C247.274 45.4936 246.931 44.166 247.063 42.5073L249.513 11.7889L253.857 11.6539L251.381 42.7072C251.281 43.9513 251.742 44.614 252.763 44.6954C253.178 44.7285 253.648 44.6697 254.173 44.519L254.89 47.6098C253.826 48.0706 252.736 48.2565 251.619 48.1675Z" fill="#F8DFB8"/>
<path d="M281.939 50.6417L278.219 50.2198L278.407 46.4249C276.327 49.1518 273.824 50.3494 270.899 50.0177C268.896 49.7905 267.396 48.9602 266.399 47.5267C265.402 46.0933 265.03 44.2637 265.282 42.038L267.375 23.5803L271.668 24.0671L269.618 42.1432C269.452 43.6058 269.6 44.7176 270.061 45.4784C270.558 46.211 271.362 46.6404 272.475 46.7666C274.605 47.0082 276.592 45.8165 278.436 43.1915L280.491 25.0677L284.784 25.5545L281.939 50.6417Z" fill="#F8DFB8"/>
<path d="M310.45 28.6063C312.441 28.9177 313.887 29.8239 314.786 31.3248C315.721 32.799 316.008 34.6901 315.648 36.998L312.808 55.1613L308.54 54.494L311.298 36.8523C311.55 35.2399 311.462 34.0439 311.033 33.2643C310.609 32.4531 309.844 31.961 308.738 31.788C306.651 31.4617 304.522 32.6511 302.35 35.356L299.576 53.0925L295.308 52.4252L299.209 27.4803L302.908 28.0586L302.661 31.8096C305.04 29.2341 307.636 28.1663 310.45 28.6063Z" fill="#F8DFB8"/>
<path d="M339.324 33.7819C340.643 34.0408 341.809 34.498 342.822 35.1534C343.834 35.8088 344.754 36.6904 345.58 37.7983L343.196 39.9718C342.56 39.2273 341.893 38.6397 341.194 38.2091C340.502 37.7472 339.717 37.4299 338.838 37.2572C336.985 36.8935 335.386 37.3949 334.042 38.7615C332.729 40.1342 331.746 42.4848 331.092 45.8132C329.871 52.0305 331.208 55.5214 335.101 56.2859C335.981 56.4585 336.809 56.4745 337.587 56.3336C338.371 56.1614 339.229 55.8572 340.163 55.4209L341.633 58.3998C339.265 59.8265 336.81 60.2901 334.267 59.7907C331.095 59.168 328.815 57.5789 327.425 55.0232C326.067 52.4738 325.794 49.1266 326.608 44.9818C327.139 42.2813 328.006 40.0221 329.211 38.2042C330.447 36.3924 331.924 35.1007 333.64 34.329C335.389 33.5635 337.283 33.3811 339.324 33.7819Z" fill="#F8DFB8"/>
<path d="M367.969 40.0712C369.931 40.536 371.301 41.5514 372.081 43.1175C372.892 44.6908 373.032 46.5985 372.501 48.8404L368.262 66.7291L364.059 65.7331L368.176 48.3582C368.552 46.7702 368.541 45.5672 368.143 44.7494C367.783 43.9078 367.074 43.3616 366.015 43.1107C363.96 42.6238 361.745 43.6446 359.37 46.1731L355.231 63.6415L351.028 62.6455L359.195 28.1758L363.509 28.7048L360.222 42.5767C361.443 41.4517 362.679 40.6759 363.931 40.2491C365.191 39.7911 366.536 39.7318 367.969 40.0712Z" fill="#F8DFB8"/>
</svg>
