<svg width="300" height="83" viewBox="0 0 300 83" fill="none" xmlns="http://www.w3.org/2000/svg">
<path d="M282.247 50.1704L270.089 72.298L266.164 70.4925L271.365 61.0273C268.739 61.9624 266.234 61.8816 263.85 60.785C261.96 59.9157 260.771 58.7008 260.28 57.1403C259.79 55.5798 260.077 53.8319 261.14 51.8968L266.156 42.7682L270.081 44.5736L265.25 53.3657C264.603 54.5436 264.401 55.5401 264.645 56.3551C264.889 57.1701 265.564 57.8316 266.669 58.3398C267.57 58.7544 268.587 58.9587 269.719 58.9526C270.867 58.9184 271.932 58.6705 272.914 58.2088L278.323 48.365L282.247 50.1704Z" fill="#F8DFB8"/>
<path d="M243.454 61.2546L247.77 50.8846L239.112 47.8685L234.797 58.2385L230.717 56.8173L240.417 33.5069L244.497 34.9281L240.421 44.722L249.079 47.7381L253.154 37.9442L257.234 39.3654L247.534 62.6758L243.454 61.2546Z" fill="#F8DFB8"/>
<path d="M226.168 49.6928C225.874 50.6738 225.794 51.4445 225.926 52.005C226.068 52.5349 226.397 52.9963 226.913 53.3894L225.189 55.9727C224.034 55.4854 223.197 54.8803 222.679 54.1574C222.162 53.4344 221.933 52.4708 221.993 51.2665C219.676 53.3223 217.089 53.9924 214.234 53.2768C212.061 52.7323 210.535 51.6415 209.657 50.0044C208.788 48.3366 208.689 46.3838 209.359 44.1459C210.13 41.5707 211.57 39.8227 213.681 38.9016C215.792 37.9805 218.431 37.9167 221.597 38.7101L224.763 39.5035L225.382 37.4342C225.887 35.7481 225.893 34.4477 225.399 33.5331C224.945 32.5956 223.927 31.9285 222.344 31.5318C220.637 31.1039 218.522 31.0353 215.999 31.3259L215.842 28.1722C218.904 27.753 221.614 27.8391 223.973 28.4302C229.281 29.7603 231.15 33.0465 229.581 38.2887L226.168 49.6928ZM216.147 50.3949C218.32 50.9394 220.357 50.0986 222.258 47.8726L223.965 42.1706L221.264 41.4939C217.229 40.4827 214.711 41.6478 213.711 44.9894C213.28 46.4302 213.275 47.6155 213.698 48.5452C214.12 49.475 214.937 50.0915 216.147 50.3949Z" fill="#F8DFB8"/>
<path d="M206.28 25.0832L201.509 49.8764L197.244 49.1894L201.371 27.7428L194.547 26.6436L192.133 35.6339C191.251 38.8612 190.47 41.2299 189.788 42.74C189.145 44.2238 188.349 45.3106 187.402 46.0004C186.461 46.6588 185.08 47.1491 183.259 47.4713L182.843 44.051C183.8 43.8164 184.538 43.4494 185.058 42.9499C185.583 42.419 186.056 41.5718 186.475 40.4083C186.894 39.2447 187.462 37.3112 188.177 34.6079L191.352 22.6786L206.28 25.0832Z" fill="#F8DFB8"/>
<path d="M166.258 32.2683L166.6 28.7328L178.991 29.7363L178.649 33.2718L166.258 32.2683Z" fill="#F8DFB8"/>
<path d="M153.012 19.238C154.356 19.2473 155.587 19.4797 156.703 19.9354C157.819 20.3911 158.885 21.0865 159.902 22.0215L157.961 24.6002C157.198 23.9869 156.433 23.5336 155.668 23.2404C154.902 22.9151 154.072 22.7494 153.176 22.7432C151.288 22.7302 149.809 23.5201 148.74 25.1127C147.703 26.7056 147.17 29.198 147.143 32.5899C147.09 38.9257 149.048 42.1072 153.016 42.1346C153.912 42.1407 154.729 42.0023 155.468 41.7194C156.206 41.4045 156.994 40.9459 157.831 40.3437L159.825 42.9974C157.762 44.8393 155.435 45.7513 152.843 45.7334C149.611 45.7112 147.076 44.5737 145.238 42.321C143.433 40.0686 142.548 36.8304 142.582 32.6065C142.605 29.8546 143.04 27.4736 143.889 25.4634C144.77 23.4534 145.982 21.9097 147.527 20.8323C149.104 19.7551 150.933 19.2237 153.012 19.238Z" fill="#F8DFB8"/>
<path d="M138.342 31.6617C138.401 32.3311 138.435 33.0825 138.444 33.916L123.796 34.9948C124.182 37.9181 124.959 39.9944 126.127 41.2238C127.292 42.4213 128.784 42.9531 130.603 42.8191C131.752 42.7345 132.758 42.484 133.621 42.0675C134.515 41.6487 135.422 41.0045 136.342 40.1347L138.479 42.5279C136.303 44.8057 133.715 46.055 130.715 46.276C127.428 46.518 124.775 45.5744 122.757 43.4451C120.768 41.2816 119.592 38.1438 119.231 34.0317C118.869 29.9196 119.444 26.6047 120.958 24.087C122.468 21.5374 124.755 20.1498 127.818 19.9242C130.85 19.7009 133.275 20.6131 135.093 22.6609C136.909 24.6768 137.992 27.677 138.342 31.6617ZM134.064 30.6774C133.601 25.4177 131.631 22.9159 128.152 23.1721C126.557 23.2896 125.355 24.0519 124.547 25.4589C123.737 26.834 123.398 29.0085 123.531 31.9825L134.11 31.2033L134.064 30.6774Z" fill="#F8DFB8"/>
<path d="M108.894 47.8256L106.741 36.8018L97.6933 38.2809L99.8458 49.3047L95.5823 50.0016L90.7439 25.2216L95.0073 24.5246L97.0402 34.936L106.088 33.457L104.055 23.0456L108.319 22.3487L113.157 47.1287L108.894 47.8256Z" fill="#F8DFB8"/>
<path d="M74.5385 28.2399C76.7416 27.6849 78.7677 27.8174 80.6168 28.6373C82.4877 29.4187 83.7227 30.8053 84.322 32.7971C84.7462 34.2067 84.6839 35.4421 84.1353 36.5033C83.6177 37.5567 82.6011 38.5051 81.0855 39.3483C83.1545 39.1239 84.8284 39.3615 86.1071 40.0613C87.3767 40.7305 88.2789 41.9537 88.8137 43.731C89.5513 46.1824 89.2649 48.2819 87.9547 50.0295C86.6445 51.7771 84.624 52.9948 81.8933 53.6826C78.5731 54.519 75.4094 54.2116 72.4023 52.7604L73.7777 49.8426C75.0012 50.3586 76.1337 50.6831 77.1752 50.8164C78.2386 50.9111 79.4064 50.7983 80.6787 50.4778C84.061 49.6258 85.305 47.7136 84.4107 44.7412C83.9773 43.301 83.1921 42.4109 82.055 42.071C80.9397 41.6927 79.4511 41.738 77.5892 42.207L74.8896 42.887L74.2095 39.7948L76.2575 39.2789C77.8711 38.8724 79.0156 38.238 79.6908 37.3756C80.3568 36.4826 80.4962 35.3926 80.109 34.1056C79.7402 32.8799 79.0958 32.0697 78.1759 31.6751C77.256 31.2805 76.1754 31.2395 74.9342 31.5522C73.8481 31.8257 72.9323 32.2213 72.1866 32.7387C71.472 33.2484 70.7104 33.9347 69.9019 34.7977L67.2554 32.9919C68.127 31.7834 69.1498 30.8005 70.324 30.0432C71.489 29.2553 72.8938 28.6542 74.5385 28.2399Z" fill="#F8DFB8"/>
<path d="M68.1643 56.4668L64.2619 57.8128L59.398 46.0076C58.3253 43.4039 57.5436 40.9195 57.0528 38.5544L55.5497 60.818L51.1481 62.3362L41.5301 38.9919L45.3871 37.6615L50.123 49.1561C51.1348 51.6119 51.9833 54.1746 52.6687 56.8443L54.0994 34.6564L58.5463 33.1225L68.1643 56.4668Z" fill="#F8DFB8"/>
<path d="M23.1758 51.8067C26.4269 50.2982 29.3489 49.8749 31.9417 50.5367C34.548 51.1571 36.6501 52.9087 38.2478 55.7915C40.0007 58.9543 40.367 61.7223 39.3469 64.0957C38.3403 66.4277 36.1825 68.3613 32.8733 69.8967L25.5148 73.311L9.5064 44.4265L24.4846 37.4768L25.7508 40.8477L15.3008 45.6964L19.6054 53.4633L23.1758 51.8067ZM31.3489 66.7512C33.3808 65.8084 34.6343 64.6462 35.1094 63.2646C35.6134 61.8696 35.245 60.0525 34.004 57.8134C32.8872 55.7982 31.5648 54.5645 30.0369 54.1123C28.5091 53.66 26.7147 53.912 24.6537 54.8683L21.2575 56.4441L27.8656 68.3674L31.3489 66.7512Z" fill="#F8DFB8"/>
</svg>
