<svg width="50" height="50" viewBox="0 0 50 50" fill="none" xmlns="http://www.w3.org/2000/svg">
<g clip-path="url(#clip0_313_550)">
<path d="M25.0001 48.3333C21.9359 48.3333 18.9017 47.7298 16.0708 46.5571C13.2399 45.3845 10.6676 43.6658 8.50092 41.4991C6.33422 39.3324 4.6155 36.7602 3.44289 33.9292C2.27028 31.0983 1.66675 28.0641 1.66675 25C1.66675 21.9358 2.27028 18.9016 3.44289 16.0707C4.6155 13.2397 6.33422 10.6675 8.50092 8.5008C10.6676 6.3341 13.2399 4.61538 16.0708 3.44277C18.9017 2.27016 21.9359 1.66663 25.0001 1.66663C31.1885 1.66663 37.1234 4.12495 41.4992 8.5008C45.8751 12.8767 48.3334 18.8116 48.3334 25C48.3334 31.1883 45.8751 37.1233 41.4992 41.4991C37.1234 45.875 31.1885 48.3333 25.0001 48.3333ZM25.0001 48.3333V21.6666C25.0001 19.8985 25.7025 18.2028 26.9527 16.9526C28.2029 15.7023 29.8986 15 31.6667 15H33.3334M16.6667 28.3333H33.3334" stroke="#E83100" stroke-width="3"/>
</g>
<defs>
<clipPath id="clip0_313_550">
<rect width="50" height="50" fill="white"/>
</clipPath>
</defs>
</svg>
