<svg width="400" height="400" viewBox="0 0 400 400" fill="none" xmlns="http://www.w3.org/2000/svg">
<path d="M395.234 203.742C395.234 187.354 393.904 175.396 391.026 162.994H203.893V236.961H313.736C311.522 255.342 299.563 283.025 272.988 301.626L272.615 304.103L331.783 349.939L335.882 350.348C373.53 315.579 395.234 264.422 395.234 203.742Z" fill="#4285F4"/>
<path d="M203.893 398.626C257.707 398.626 302.884 380.908 335.882 350.348L272.988 301.626C256.157 313.363 233.568 321.557 203.893 321.557C151.186 321.557 106.452 286.789 90.5054 238.733L88.168 238.931L26.6443 286.545L25.8397 288.782C58.6153 353.89 125.939 398.626 203.893 398.626Z" fill="#34A853"/>
<path d="M90.5054 238.733C86.2978 226.331 83.8626 213.043 83.8626 199.313C83.8626 185.581 86.2978 172.294 90.284 159.893L90.1726 157.252L27.8779 108.873L25.8397 109.843C12.3313 136.861 4.5802 167.201 4.5802 199.313C4.5802 231.424 12.3313 261.763 25.8397 288.781L90.5054 238.733Z" fill="#FBBC05"/>
<path d="M203.893 77.0672C241.319 77.0672 266.565 93.2336 280.96 106.744L337.211 51.8214C302.664 19.7099 257.707 0 203.893 0C125.939 0 58.6153 44.7343 25.8397 109.843L90.284 159.893C106.452 111.837 151.186 77.0672 203.893 77.0672Z" fill="#EB4335"/>
</svg>
