<svg width="382" height="345" viewBox="0 0 382 345" fill="none" xmlns="http://www.w3.org/2000/svg">
<mask id="mask0_203_660" style="mask-type:luminance" maskUnits="userSpaceOnUse" x="80" y="30" width="220" height="190">
<path d="M299.943 30.8267H80.0576V219.174H299.943V30.8267Z" fill="white"/>
</mask>
<g mask="url(#mask0_203_660)">
<path d="M261.739 162.486C261.611 149.894 259.007 141.655 253.627 136.618C252.688 135.722 251.663 135.039 250.681 134.398C245.088 130.898 238.427 130.813 233.048 131.239C232.578 131.239 232.109 131.325 231.682 131.368C230.187 131.496 228.608 131.709 226.942 131.922C225.277 132.179 223.57 132.435 221.648 132.733L219.087 133.16C215.97 133.673 212.81 134.227 209.48 134.697C202.521 135.679 193.341 136.575 183.948 134.91C179.337 134.099 174.94 132.605 170.883 130.941C167.212 129.404 163.839 127.696 160.935 126.16C158.331 124.794 155.769 123.3 153.208 121.848C151.03 120.611 148.895 119.415 146.803 118.305C144.754 117.196 142.705 116.171 140.74 115.232C140.442 115.104 140.143 114.891 139.844 114.763C135.147 112.671 128.402 110.238 121.57 111.689C120.46 111.903 119.35 112.244 118.24 112.671C111.153 115.574 105.816 122.404 101.247 134.569C94.5443 156.894 99.0272 176.615 114.141 191.641C129.853 207.221 152.909 214.008 169.475 216.911C176.562 218.149 185.016 219.173 193.939 219.173C205.851 219.173 218.617 217.38 230.102 212.087C249.443 203.166 260.415 186.134 261.739 162.87V162.486Z" fill="#F5E5C9"/>
<path d="M158.117 58.1606C159.355 57.7765 160.679 57.5203 161.96 57.2216L161.973 57.2188C159.713 54.7456 157.327 52.1441 156.431 48.9039C156.218 48.0502 156.047 47.1964 156.175 46.3427C156.303 45.1474 156.901 44.0803 157.456 43.0131C158.779 40.4093 159.889 37.2931 158.694 34.604C157.797 32.5977 155.748 31.2744 153.613 30.9328C151.478 30.5914 149.258 31.1037 147.252 32.0427C144.092 33.5367 141.104 35.7137 138.926 38.4884C136.749 41.263 135.34 44.2085 134.358 47.4526C133.845 49.16 133.504 50.8674 133.333 52.6176C132.609 59.0454 133.967 65.6429 136.599 71.5637C142.448 65.2464 149.877 60.6791 158.117 58.1606Z" fill="#A6A6A6"/>
<path d="M250.29 91.4097C250.488 91.1586 258.689 80.7278 260.128 74.2908C261.738 67.0916 260.412 59.0732 255.832 53.3368C254.187 51.2874 252.055 49.4582 249.44 48.9201C248.009 48.5989 246.454 48.7819 245.126 49.3674C244.461 49.6602 243.873 50.0868 243.363 50.6052C243.085 50.8842 242.935 51.1724 242.7 51.4545C242.605 51.5758 242.514 51.6546 242.419 51.7759C242.279 51.9365 242.217 52.1888 242.162 52.356C241.471 54.1448 241.112 56.087 241.184 57.9758C241.175 58.1036 241.165 58.2312 241.198 58.3623C241.285 59.4818 241.501 60.6109 241.205 61.7015C241.01 62.5858 240.484 63.3171 239.916 64.0449C237.802 66.6404 231.612 69.4014 231.441 69.4771C232.47 70.1417 233.535 70.7974 234.5 71.5642C246.09 80.7781 250.282 91.3846 250.29 91.4097Z" fill="#A6A6A6"/>
<path d="M296.772 101.275C291.603 95.1796 282.19 92.1391 274.59 91.1572C270.492 90.6023 265.966 90.4314 260.757 90.6448H260.33C256.038 90.8998 252.762 91.1547 250.29 91.4097C250.282 91.3851 246.09 80.7783 234.499 71.5642C233.45 70.73 232.279 70.0275 231.169 69.3017C226.857 66.6126 222.118 64.5209 216.952 63.283C221.392 61.4901 227.882 61.2767 230.443 61.4047C231.681 61.4902 232.877 60.6792 233.304 59.4838C233.731 58.2888 233.304 56.9227 232.279 56.197C222.459 49.1539 212.725 50.5624 206.662 53.337C205.808 48.7695 204.058 44.629 203.972 44.3731C203.631 43.5618 202.905 42.9216 202.051 42.7081C201.154 42.452 200.258 42.6654 199.575 43.1777C196.842 45.2693 195.177 48.6843 194.152 51.5443C183.479 43.0923 172.847 45.5254 172.378 45.6109C171.225 45.867 170.371 46.8487 170.2 48.0013C170.03 49.1539 170.585 50.3063 171.609 50.9041C174 52.2698 177.16 54.4468 179.55 56.5813C173.531 55.6422 167.596 55.9835 161.96 57.2216C160.679 57.5203 159.356 57.7764 158.117 58.1605C149.877 60.6792 142.448 65.2466 136.599 71.5642C134.165 70.2836 130.536 68.7042 125.199 66.6979C120.503 64.9904 116.148 63.7951 111.921 62.9841C105.004 61.6608 94.8857 60.7644 87.1152 67.8077C82.9311 71.436 80.2839 77.1987 80.0705 82.7906C79.8997 87.4434 81.4367 91.712 84.4254 94.7854C89.3353 99.9506 97.106 101.188 104.492 101.188C108.292 101.188 112.006 100.847 115.209 100.591L116.404 100.505C119.222 100.292 121.613 100.036 123.662 99.7372L121.528 111.689L121.526 111.699L121.57 111.689C128.401 110.238 135.147 112.671 139.844 114.763C140.143 114.891 140.442 115.104 140.74 115.232C142.704 116.171 144.754 117.196 146.803 118.305C148.895 119.415 151.03 120.611 153.207 121.848C155.769 123.3 158.331 124.794 160.935 126.16C163.839 127.696 167.212 129.404 170.883 130.941C174.939 132.605 179.337 134.099 183.948 134.91C193.341 136.575 202.521 135.679 209.48 134.697C212.81 134.227 215.97 133.673 219.086 133.16L221.648 132.733C223.57 132.435 225.277 132.179 226.942 131.922C228.608 131.709 230.187 131.496 231.681 131.368C232.109 131.325 232.578 131.239 233.048 131.239C238.406 130.814 245.036 130.899 250.616 134.359C250.629 134.335 253.157 120.013 253.157 120.013C254.822 120.739 256.701 121.507 258.964 122.361L259.732 122.66C265.966 125.093 274.548 128.422 282.361 128.422C285.392 128.422 288.338 127.91 290.943 126.672C294.828 124.837 297.646 121.464 298.841 117.196C300.25 112.244 300.977 106.233 296.772 101.275Z" fill="#7C4EC4"/>
<path d="M273.565 100.463C271.046 100.121 265.667 99.8651 262.806 101.402C259.946 102.896 251.065 109.213 264.898 115.446C269.509 117.281 276.725 120.312 281.507 117.964C285.947 115.787 286.459 109.811 284.026 105.969C281.507 101.957 277.878 101.103 273.523 100.505L273.565 100.463Z" fill="#F5EAD7"/>
<path d="M108.292 71.9054C104.023 71.1371 100.308 70.7955 96.5509 74.3385C93.0071 77.7109 91.5981 84.2418 95.0564 87.9556C98.8563 91.9679 106.712 91.0715 111.665 90.5594C126.865 88.2117 120.503 78.8207 118.197 76.3021C116.02 73.7837 110.811 72.375 108.292 71.9481V71.9054Z" fill="#F5EAD7"/>
<path d="M158.545 110.025C156.41 109.64 155.044 107.591 155.513 105.457C155.898 103.323 157.947 101.957 160.082 102.426C162.217 102.811 163.583 104.859 163.113 106.994C162.729 109.128 160.679 110.409 158.545 110.025Z" fill="#231F20"/>
<path d="M146.803 118.305C148.895 119.415 151.03 120.611 153.208 121.848C155.769 123.3 158.331 124.794 160.935 126.16C163.83 127.692 167.192 129.394 170.85 130.927L170.841 130.855C174.641 120.056 182.155 92.3096 160.594 87.8274C143.516 84.3698 140.954 111.092 140.698 115.147L140.678 115.202C140.699 115.211 140.72 115.223 140.741 115.232C142.705 116.171 144.754 117.196 146.803 118.305Z" fill="white"/>
<path d="M219.086 133.16L221.648 132.733C223.569 132.435 225.277 132.179 226.942 131.923C228.581 131.712 230.136 131.503 231.609 131.375L231.596 131.282C232.407 128.508 240.007 101.188 222.288 98.542C200.343 95.3406 198.037 124.41 197.952 135.722L197.92 135.785C202.147 135.635 206.079 135.177 209.48 134.697C212.81 134.227 215.969 133.673 219.086 133.16Z" fill="white"/>
<path d="M153.207 121.848C155.769 123.3 158.331 124.794 160.935 126.16C162.098 126.775 163.34 127.418 164.642 128.067C165.193 127.644 165.761 127.107 165.947 126.862C168.746 123.164 170.542 118.228 170.936 113.225C171.379 107.594 170.044 101.879 166.364 97.7535C164.364 95.5107 161.433 93.9719 158.432 94.1463C154.48 94.3761 151.231 97.4321 149.164 100.808C146.89 104.524 145.602 108.837 145.467 113.192C145.432 114.329 145.368 116.271 145.697 117.717C146.065 117.912 146.434 118.106 146.803 118.305C148.895 119.415 151.03 120.611 153.207 121.848Z" fill="#231F20"/>
<path d="M152.781 151.942C156.196 152.54 159.484 150.235 160.082 146.82C160.679 143.405 158.374 140.118 154.958 139.521C151.542 138.923 148.255 141.228 147.657 144.643C147.06 148.058 149.365 151.345 152.781 151.942Z" fill="#5E3883"/>
<path d="M210.676 148.912C207.26 148.314 203.972 150.619 203.375 154.034C202.777 157.449 205.082 160.736 208.498 161.333C211.914 161.931 215.201 159.626 215.799 156.211C216.397 152.796 214.091 149.509 210.676 148.912Z" fill="#5E3883"/>
<path d="M213.28 182.207C211.657 181.823 210.889 180.329 210.633 179.603C209.992 177.981 208.242 177.085 206.662 177.554C205.723 177.768 204.954 178.365 204.527 179.219C204.1 180.03 204.058 181.012 204.442 181.908C204.484 182.036 204.613 182.292 204.741 182.634C199.446 185.707 187.108 191.47 171.865 189.08C157.605 186.817 150.261 177.17 147.486 172.56C148.127 171.877 148.468 171.322 148.511 171.237C149.493 169.785 149.066 167.694 147.444 166.584C145.864 165.645 143.857 166.114 142.918 167.736C142.918 167.822 141.893 169.487 139.887 169.273C138.99 169.273 138.05 169.614 137.41 170.297C136.855 170.895 136.556 171.706 136.599 172.517C136.514 174.139 137.709 175.591 139.374 175.847H139.844C140.399 175.847 140.997 175.847 141.551 175.761C144.497 181.055 152.823 192.494 170.926 195.696C174 196.251 176.946 196.464 179.764 196.464C193.896 196.464 204.741 190.531 209.309 187.543C210.078 187.97 210.889 188.269 211.743 188.482L212.383 188.567C213.963 188.567 215.201 187.671 215.799 185.963C216.055 184.341 215.03 182.719 213.28 182.207Z" fill="#AE8BBC"/>
<path d="M219.086 133.16L221.648 132.733C223.038 132.517 224.316 132.324 225.547 132.136C226.601 130.355 227.547 128.273 228.223 126.117C231.084 116.385 227.967 106.908 221.307 104.902C214.646 102.853 206.876 109.128 203.93 118.861C202.06 124.978 202.688 131.116 205.051 135.256C206.605 135.086 208.088 134.893 209.48 134.697C212.81 134.227 215.97 133.673 219.086 133.16Z" fill="#231F20"/>
<path d="M221.093 116.811C221.477 114.677 219.983 112.714 217.848 112.415C215.713 112.031 213.749 113.525 213.45 115.659C213.066 117.793 214.561 119.671 216.695 120.056C218.83 120.44 220.794 118.946 221.093 116.811Z" fill="white"/>
<path d="M160.081 102.426C157.989 101.957 155.897 103.323 155.513 105.457C155.043 107.549 156.409 109.64 158.544 110.024C160.679 110.409 162.728 109.128 163.112 106.994C163.582 104.902 162.216 102.811 160.081 102.426Z" fill="white"/>
</g>
<path d="M23.0455 309V262.455H32.8864V281.659H52.8636V262.455H62.6818V309H52.8636V289.773H32.8864V309H23.0455ZM80.5682 309.659C78.3409 309.659 76.3561 309.273 74.6136 308.5C72.8712 307.712 71.4924 306.553 70.4773 305.023C69.4773 303.477 68.9773 301.553 68.9773 299.25C68.9773 297.311 69.3333 295.682 70.0455 294.364C70.7576 293.045 71.7273 291.985 72.9545 291.182C74.1818 290.379 75.5758 289.773 77.1364 289.364C78.7121 288.955 80.3636 288.667 82.0909 288.5C84.1212 288.288 85.7576 288.091 87 287.909C88.2424 287.712 89.1439 287.424 89.7045 287.045C90.2652 286.667 90.5455 286.106 90.5455 285.364V285.227C90.5455 283.788 90.0909 282.674 89.1818 281.886C88.2879 281.098 87.0152 280.705 85.3636 280.705C83.6212 280.705 82.2348 281.091 81.2045 281.864C80.1742 282.621 79.4924 283.576 79.1591 284.727L70.2045 284C70.6591 281.879 71.553 280.045 72.8864 278.5C74.2197 276.939 75.9394 275.742 78.0455 274.909C80.1667 274.061 82.6212 273.636 85.4091 273.636C87.3485 273.636 89.2045 273.864 90.9773 274.318C92.7652 274.773 94.3485 275.477 95.7273 276.432C97.1212 277.386 98.2197 278.614 99.0227 280.114C99.8258 281.598 100.227 283.379 100.227 285.455V309H91.0455V304.159H90.7727C90.2121 305.25 89.4621 306.212 88.5227 307.045C87.5833 307.864 86.4545 308.508 85.1364 308.977C83.8182 309.432 82.2955 309.659 80.5682 309.659ZM83.3409 302.977C84.7652 302.977 86.0227 302.697 87.1136 302.136C88.2045 301.561 89.0606 300.788 89.6818 299.818C90.303 298.848 90.6136 297.75 90.6136 296.523V292.818C90.3106 293.015 89.8939 293.197 89.3636 293.364C88.8485 293.515 88.2652 293.659 87.6136 293.795C86.9621 293.917 86.3106 294.03 85.6591 294.136C85.0076 294.227 84.4167 294.311 83.8864 294.386C82.75 294.553 81.7576 294.818 80.9091 295.182C80.0606 295.545 79.4015 296.038 78.9318 296.659C78.4621 297.265 78.2273 298.023 78.2273 298.932C78.2273 300.25 78.7045 301.258 79.6591 301.955C80.6288 302.636 81.8561 302.977 83.3409 302.977ZM107.739 322.091V274.091H117.284V279.955H117.716C118.14 279.015 118.754 278.061 119.557 277.091C120.375 276.106 121.436 275.288 122.739 274.636C124.057 273.97 125.693 273.636 127.648 273.636C130.193 273.636 132.542 274.303 134.693 275.636C136.845 276.955 138.564 278.947 139.852 281.614C141.14 284.265 141.784 287.591 141.784 291.591C141.784 295.485 141.155 298.773 139.898 301.455C138.655 304.121 136.958 306.144 134.807 307.523C132.67 308.886 130.277 309.568 127.625 309.568C125.746 309.568 124.148 309.258 122.83 308.636C121.527 308.015 120.458 307.235 119.625 306.295C118.792 305.341 118.155 304.379 117.716 303.409H117.42V322.091H107.739ZM117.216 291.545C117.216 293.621 117.504 295.432 118.08 296.977C118.655 298.523 119.489 299.727 120.58 300.591C121.67 301.439 122.996 301.864 124.557 301.864C126.133 301.864 127.466 301.432 128.557 300.568C129.648 299.689 130.473 298.477 131.034 296.932C131.61 295.371 131.898 293.576 131.898 291.545C131.898 289.53 131.617 287.758 131.057 286.227C130.496 284.697 129.67 283.5 128.58 282.636C127.489 281.773 126.148 281.341 124.557 281.341C122.981 281.341 121.648 281.758 120.557 282.591C119.481 283.424 118.655 284.606 118.08 286.136C117.504 287.667 117.216 289.47 117.216 291.545ZM148.239 322.091V274.091H157.784V279.955H158.216C158.64 279.015 159.254 278.061 160.057 277.091C160.875 276.106 161.936 275.288 163.239 274.636C164.557 273.97 166.193 273.636 168.148 273.636C170.693 273.636 173.042 274.303 175.193 275.636C177.345 276.955 179.064 278.947 180.352 281.614C181.64 284.265 182.284 287.591 182.284 291.591C182.284 295.485 181.655 298.773 180.398 301.455C179.155 304.121 177.458 306.144 175.307 307.523C173.17 308.886 170.777 309.568 168.125 309.568C166.246 309.568 164.648 309.258 163.33 308.636C162.027 308.015 160.958 307.235 160.125 306.295C159.292 305.341 158.655 304.379 158.216 303.409H157.92V322.091H148.239ZM157.716 291.545C157.716 293.621 158.004 295.432 158.58 296.977C159.155 298.523 159.989 299.727 161.08 300.591C162.17 301.439 163.496 301.864 165.057 301.864C166.633 301.864 167.966 301.432 169.057 300.568C170.148 299.689 170.973 298.477 171.534 296.932C172.11 295.371 172.398 293.576 172.398 291.545C172.398 289.53 172.117 287.758 171.557 286.227C170.996 284.697 170.17 283.5 169.08 282.636C167.989 281.773 166.648 281.341 165.057 281.341C163.481 281.341 162.148 281.758 161.057 282.591C159.981 283.424 159.155 284.606 158.58 286.136C158.004 287.667 157.716 289.47 157.716 291.545ZM193.591 322.091C192.364 322.091 191.212 321.992 190.136 321.795C189.076 321.614 188.197 321.379 187.5 321.091L189.682 313.864C190.818 314.212 191.841 314.402 192.75 314.432C193.674 314.462 194.47 314.25 195.136 313.795C195.818 313.341 196.371 312.568 196.795 311.477L197.364 310L184.841 274.091H195.023L202.25 299.727H202.614L209.909 274.091H220.159L206.591 312.773C205.939 314.652 205.053 316.288 203.932 317.682C202.826 319.091 201.424 320.174 199.727 320.932C198.03 321.705 195.985 322.091 193.591 322.091Z" fill="black"/>
<path d="M266.364 278.75H256.409C256.227 277.462 255.856 276.318 255.295 275.318C254.735 274.303 254.015 273.439 253.136 272.727C252.258 272.015 251.242 271.47 250.091 271.091C248.955 270.712 247.72 270.523 246.386 270.523C243.977 270.523 241.879 271.121 240.091 272.318C238.303 273.5 236.917 275.227 235.932 277.5C234.947 279.758 234.455 282.5 234.455 285.727C234.455 289.045 234.947 291.833 235.932 294.091C236.932 296.348 238.326 298.053 240.114 299.205C241.902 300.356 243.97 300.932 246.318 300.932C247.636 300.932 248.856 300.758 249.977 300.409C251.114 300.061 252.121 299.553 253 298.886C253.879 298.205 254.606 297.379 255.182 296.409C255.773 295.439 256.182 294.333 256.409 293.091L266.364 293.136C266.106 295.273 265.462 297.333 264.432 299.318C263.417 301.288 262.045 303.053 260.318 304.614C258.606 306.159 256.561 307.386 254.182 308.295C251.818 309.189 249.144 309.636 246.159 309.636C242.008 309.636 238.295 308.697 235.023 306.818C231.765 304.939 229.189 302.22 227.295 298.659C225.417 295.098 224.477 290.788 224.477 285.727C224.477 280.652 225.432 276.333 227.341 272.773C229.25 269.212 231.841 266.5 235.114 264.636C238.386 262.758 242.068 261.818 246.159 261.818C248.856 261.818 251.356 262.197 253.659 262.955C255.977 263.712 258.03 264.818 259.818 266.273C261.606 267.712 263.061 269.477 264.182 271.568C265.318 273.659 266.045 276.053 266.364 278.75ZM289.011 309.682C285.481 309.682 282.428 308.932 279.852 307.432C277.292 305.917 275.314 303.811 273.92 301.114C272.527 298.402 271.83 295.258 271.83 291.682C271.83 288.076 272.527 284.924 273.92 282.227C275.314 279.515 277.292 277.409 279.852 275.909C282.428 274.394 285.481 273.636 289.011 273.636C292.542 273.636 295.587 274.394 298.148 275.909C300.723 277.409 302.708 279.515 304.102 282.227C305.496 284.924 306.193 288.076 306.193 291.682C306.193 295.258 305.496 298.402 304.102 301.114C302.708 303.811 300.723 305.917 298.148 307.432C295.587 308.932 292.542 309.682 289.011 309.682ZM289.057 302.182C290.663 302.182 292.004 301.727 293.08 300.818C294.155 299.894 294.966 298.636 295.511 297.045C296.072 295.455 296.352 293.644 296.352 291.614C296.352 289.583 296.072 287.773 295.511 286.182C294.966 284.591 294.155 283.333 293.08 282.409C292.004 281.485 290.663 281.023 289.057 281.023C287.436 281.023 286.072 281.485 284.966 282.409C283.875 283.333 283.049 284.591 282.489 286.182C281.943 287.773 281.67 289.583 281.67 291.614C281.67 293.644 281.943 295.455 282.489 297.045C283.049 298.636 283.875 299.894 284.966 300.818C286.072 301.727 287.436 302.182 289.057 302.182ZM318.5 309L309 274.091H318.795L324.205 297.545H324.523L330.159 274.091H339.773L345.5 297.409H345.795L351.114 274.091H360.886L351.409 309H341.159L335.159 287.045H334.727L328.727 309H318.5Z" fill="#7C4EC4"/>
</svg>
