<svg width="52" height="50" viewBox="0 0 52 50" fill="none" xmlns="http://www.w3.org/2000/svg">
<path d="M36.3318 2.51349H15.5914C8.89907 2.51349 3.47504 7.93849 3.47504 14.6298V35.3702C3.47504 42.0625 8.90004 47.4866 15.5923 47.4866H36.3308C43.0231 47.4866 48.4481 42.0616 48.4481 35.3693V14.6298C48.4481 7.93753 43.0241 2.51349 36.3318 2.51349Z" stroke="#E83100" stroke-width="2" stroke-miterlimit="10"/>
<path d="M25.9615 35.8558C31.957 35.8558 36.8173 30.9955 36.8173 25C36.8173 19.0046 31.957 14.1443 25.9615 14.1443C19.966 14.1443 15.1057 19.0046 15.1057 25C15.1057 30.9955 19.966 35.8558 25.9615 35.8558Z" stroke="#E83100" stroke-width="1.5" stroke-miterlimit="10"/>
<path d="M39.1433 14.1442C40.4279 14.1442 41.4692 13.1029 41.4692 11.8183C41.4692 10.5337 40.4279 9.49231 39.1433 9.49231C37.8587 9.49231 36.8173 10.5337 36.8173 11.8183C36.8173 13.1029 37.8587 14.1442 39.1433 14.1442Z" fill="#E83100"/>
</svg>
