<svg width="52" height="50" viewBox="0 0 52 50" fill="none" xmlns="http://www.w3.org/2000/svg">
<path d="M36.3318 2.51343H15.5914C8.89914 2.51343 3.4751 7.93843 3.4751 14.6298V35.3702C3.4751 42.0625 8.9001 47.4865 15.5924 47.4865H36.3309C43.0232 47.4865 48.4482 42.0615 48.4482 35.3692V14.6298C48.4482 7.93747 43.0241 2.51343 36.3318 2.51343Z" stroke="#E83100" stroke-width="3" stroke-miterlimit="10"/>
<path d="M25.9615 35.8558C31.957 35.8558 36.8173 30.9955 36.8173 25.0001C36.8173 19.0046 31.957 14.1443 25.9615 14.1443C19.966 14.1443 15.1057 19.0046 15.1057 25.0001C15.1057 30.9955 19.966 35.8558 25.9615 35.8558Z" stroke="#E83100" stroke-width="3" stroke-miterlimit="10"/>
<path d="M39.1433 14.1442C40.4279 14.1442 41.4693 13.1029 41.4693 11.8183C41.4693 10.5337 40.4279 9.49231 39.1433 9.49231C37.8587 9.49231 36.8174 10.5337 36.8174 11.8183C36.8174 13.1029 37.8587 14.1442 39.1433 14.1442Z" fill="#E83100"/>
</svg>
