<svg width="55" height="50" viewBox="0 0 55 50" fill="none" xmlns="http://www.w3.org/2000/svg">
<g clip-path="url(#clip0_6_21)">
<path d="M16.7231 14.0125C17.2409 14.0125 17.6606 13.5927 17.6606 13.075C17.6606 12.5572 17.2409 12.1375 16.7231 12.1375C16.2054 12.1375 15.7856 12.5572 15.7856 13.075C15.7856 13.5927 16.2054 14.0125 16.7231 14.0125Z" fill="#E83100"/>
<path d="M16.7231 17.4125V36.1375M38.5606 36.1375V24.125C38.5573 22.1965 37.7898 20.348 36.4262 18.9844C35.0626 17.6208 33.2141 16.8533 31.2856 16.85C29.355 16.85 27.5033 17.616 26.137 18.98C24.7707 20.344 24.0015 22.1944 23.9981 24.125M23.9981 24.125V36.1375M23.9981 24.125V17.4125" stroke="#E83100" stroke-width="2" stroke-linecap="round" stroke-linejoin="round"/>
<path d="M47.7981 3.125H6.5481C5.88505 3.125 5.24917 3.38839 4.78033 3.85723C4.31149 4.32607 4.0481 4.96196 4.0481 5.625V46.875C4.0481 47.538 4.31149 48.1739 4.78033 48.6428C5.24917 49.1116 5.88505 49.375 6.5481 49.375H47.7981C48.4611 49.375 49.097 49.1116 49.5659 48.6428C50.0347 48.1739 50.2981 47.538 50.2981 46.875V5.625C50.2981 4.96196 50.0347 4.32607 49.5659 3.85723C49.097 3.38839 48.4611 3.125 47.7981 3.125Z" stroke="#E83100" stroke-width="2" stroke-linecap="round" stroke-linejoin="round"/>
</g>
<defs>
<clipPath id="clip0_6_21">
<rect width="53.75" height="50" fill="white" transform="translate(0.923096)"/>
</clipPath>
</defs>
</svg>
