<svg width="20" height="16" viewBox="0 0 20 16" fill="none" xmlns="http://www.w3.org/2000/svg">
<g clip-path="url(#clip0_259_560)">
<path d="M17.435 0.0649414H2.565C1.90196 0.0649414 1.26608 0.328333 0.797235 0.797174C0.328395 1.26602 0.0650024 1.9019 0.0650024 2.56494V13.4349C0.0650024 14.098 0.328395 14.7339 0.797235 15.2027C1.26608 15.6715 1.90196 15.9349 2.565 15.9349H17.435C18.098 15.9349 18.7339 15.6715 19.2028 15.2027C19.6716 14.7339 19.935 14.098 19.935 13.4349V2.56494C19.935 1.9019 19.6716 1.26602 19.2028 0.797174C18.7339 0.328333 18.098 0.0649414 17.435 0.0649414ZM2.565 1.06494H17.435C17.8135 1.06385 18.1782 1.20695 18.455 1.46515C18.7318 1.72335 18.8998 2.07727 18.925 2.45494C16.455 3.77494 13.975 5.08494 11.495 6.40494C11.1595 6.6152 10.8045 6.79269 10.435 6.93494C10.1449 6.99219 9.84595 6.98702 9.558 6.91978C9.27006 6.85253 8.99974 6.72476 8.765 6.54494C7.345 5.79494 5.925 5.03494 4.515 4.28494C3.375 3.68494 2.215 3.07494 1.075 2.46494C1.09819 2.08566 1.26533 1.72954 1.54225 1.46934C1.81918 1.20914 2.18501 1.06449 2.565 1.06494ZM18.935 13.4349C18.935 13.8328 18.777 14.2143 18.4957 14.4956C18.2144 14.7769 17.8328 14.9349 17.435 14.9349H2.565C2.16718 14.9349 1.78565 14.7769 1.50434 14.4956C1.22304 14.2143 1.065 13.8328 1.065 13.4349V3.59994C3.425 4.83994 5.775 6.09994 8.135 7.34994C8.55665 7.60845 9.01057 7.81019 9.485 7.94994C10.1794 8.06284 10.8911 7.91695 11.485 7.53994C12.935 6.77994 14.375 6.00994 15.825 5.24994C16.865 4.68994 17.895 4.14994 18.935 3.59994V13.4349Z" fill="#E83100"/>
</g>
<defs>
<clipPath id="clip0_259_560">
<rect width="20" height="16" fill="white"/>
</clipPath>
</defs>
</svg>
