<svg width="800" height="725" viewBox="0 0 800 725" fill="none" xmlns="http://www.w3.org/2000/svg">
<path d="M400.2 0.166549C311.2 0.166549 222.267 26.2999 145.367 78.5999H0L65.4333 149.767C35.6202 176.929 14.7206 212.474 5.48001 251.733C-3.76054 290.992 -0.909816 332.127 13.6577 369.736C28.2252 407.345 53.8281 439.667 87.1031 462.458C120.378 485.248 159.769 497.441 200.1 497.433C250.494 497.477 299.032 478.419 335.933 444.1L400 513.833L464.067 444.167C500.946 478.45 549.447 497.483 599.8 497.433C652.832 497.433 703.692 476.371 741.198 438.878C778.703 401.385 799.782 350.532 799.8 297.5C799.831 269.687 794.043 242.176 782.809 216.734C771.574 191.291 755.142 168.48 734.567 149.767L800 78.5999H655C579.872 27.4572 491.083 0.125898 400.2 0.166549ZM400 65.4999C451.033 65.4999 502.1 75.5999 550.133 95.5999C464.767 128.267 400 204.667 400 293.667C400 204.633 335.267 128.267 249.867 95.5999C297.438 75.7728 348.462 65.521 400 65.4999ZM200.067 162.233C217.835 162.233 235.428 165.733 251.844 172.532C268.259 179.332 283.174 189.298 295.738 201.862C308.302 214.425 318.268 229.341 325.068 245.756C331.867 262.172 335.367 279.765 335.367 297.533C335.367 315.301 331.867 332.895 325.068 349.31C318.268 365.726 308.302 380.641 295.738 393.205C283.174 405.769 268.259 415.735 251.844 422.534C235.428 429.334 217.835 432.833 200.067 432.833C164.183 432.833 129.769 418.578 104.395 393.205C79.0214 367.831 64.7667 333.417 64.7667 297.533C64.7667 261.649 79.0214 227.235 104.395 201.862C129.769 176.488 164.183 162.233 200.067 162.233ZM599.8 162.3C617.561 162.293 635.15 165.785 651.562 172.576C667.974 179.367 682.887 189.324 695.451 201.878C708.015 214.433 717.982 229.339 724.786 245.746C731.589 262.153 735.093 279.739 735.1 297.5C735.107 315.261 731.615 332.85 724.824 349.262C718.033 365.673 708.076 380.587 695.522 393.151C682.967 405.714 668.061 415.682 651.654 422.485C635.247 429.288 617.661 432.793 599.9 432.8C564.029 432.813 529.623 418.576 504.249 393.221C478.875 367.867 464.613 333.47 464.6 297.6C464.587 261.729 478.824 227.323 504.178 201.949C529.533 176.575 563.929 162.313 599.8 162.3ZM200.067 226.633C181.254 226.633 163.212 234.107 149.909 247.409C136.607 260.712 129.133 278.754 129.133 297.567C129.133 316.379 136.607 334.421 149.909 347.724C163.212 361.027 181.254 368.5 200.067 368.5C218.879 368.5 236.922 361.027 250.224 347.724C263.527 334.421 271 316.379 271 297.567C271 278.754 263.527 260.712 250.224 247.409C236.922 234.107 218.879 226.633 200.067 226.633ZM599.8 226.633C580.987 226.633 562.945 234.107 549.643 247.409C536.34 260.712 528.867 278.754 528.867 297.567C528.867 316.379 536.34 334.421 549.643 347.724C562.945 361.027 580.987 368.5 599.8 368.5C618.613 368.5 636.655 361.027 649.957 347.724C663.26 334.421 670.733 316.379 670.733 297.567C670.733 278.754 663.26 260.712 649.957 247.409C636.655 234.107 618.613 226.633 599.8 226.633Z" fill="black"/>
<path d="M135.409 636.352V624.182H192.75V636.352H171.375V694H156.784V636.352H135.409ZM196.483 694V641.636H210.562V650.773H211.108C212.063 647.523 213.665 645.068 215.915 643.409C218.165 641.727 220.756 640.886 223.688 640.886C224.415 640.886 225.199 640.932 226.04 641.023C226.881 641.114 227.619 641.239 228.256 641.398V654.284C227.574 654.08 226.631 653.898 225.426 653.739C224.222 653.58 223.119 653.5 222.119 653.5C219.983 653.5 218.074 653.966 216.392 654.898C214.733 655.807 213.415 657.08 212.438 658.716C211.483 660.352 211.006 662.239 211.006 664.375V694H196.483ZM235.764 694V641.636H250.287V694H235.764ZM243.06 634.886C240.901 634.886 239.048 634.17 237.503 632.739C235.98 631.284 235.219 629.545 235.219 627.523C235.219 625.523 235.98 623.807 237.503 622.375C239.048 620.92 240.901 620.193 243.06 620.193C245.219 620.193 247.06 620.92 248.582 622.375C250.128 623.807 250.901 625.523 250.901 627.523C250.901 629.545 250.128 631.284 248.582 632.739C247.06 634.17 245.219 634.886 243.06 634.886ZM261.92 713.636V641.636H276.239V650.432H276.886C277.523 649.023 278.443 647.591 279.648 646.136C280.875 644.659 282.466 643.432 284.42 642.455C286.398 641.455 288.852 640.955 291.784 640.955C295.602 640.955 299.125 641.955 302.352 643.955C305.58 645.932 308.159 648.92 310.091 652.92C312.023 656.898 312.989 661.886 312.989 667.886C312.989 673.727 312.045 678.659 310.159 682.682C308.295 686.682 305.75 689.716 302.523 691.784C299.318 693.83 295.727 694.852 291.75 694.852C288.932 694.852 286.534 694.386 284.557 693.455C282.602 692.523 281 691.352 279.75 689.943C278.5 688.511 277.545 687.068 276.886 685.614H276.443V713.636H261.92ZM276.136 667.818C276.136 670.932 276.568 673.648 277.432 675.966C278.295 678.284 279.545 680.091 281.182 681.386C282.818 682.659 284.807 683.295 287.148 683.295C289.511 683.295 291.511 682.648 293.148 681.352C294.784 680.034 296.023 678.216 296.864 675.898C297.727 673.557 298.159 670.864 298.159 667.818C298.159 664.795 297.739 662.136 296.898 659.841C296.057 657.545 294.818 655.75 293.182 654.455C291.545 653.159 289.534 652.511 287.148 652.511C284.784 652.511 282.784 653.136 281.148 654.386C279.534 655.636 278.295 657.409 277.432 659.705C276.568 662 276.136 664.705 276.136 667.818ZM337.602 694.989C334.261 694.989 331.284 694.409 328.67 693.25C326.057 692.068 323.989 690.33 322.466 688.034C320.966 685.716 320.216 682.83 320.216 679.375C320.216 676.466 320.75 674.023 321.818 672.045C322.886 670.068 324.341 668.477 326.182 667.273C328.023 666.068 330.114 665.159 332.455 664.545C334.818 663.932 337.295 663.5 339.886 663.25C342.932 662.932 345.386 662.636 347.25 662.364C349.114 662.068 350.466 661.636 351.307 661.068C352.148 660.5 352.568 659.659 352.568 658.545V658.341C352.568 656.182 351.886 654.511 350.523 653.33C349.182 652.148 347.273 651.557 344.795 651.557C342.182 651.557 340.102 652.136 338.557 653.295C337.011 654.432 335.989 655.864 335.489 657.591L322.057 656.5C322.739 653.318 324.08 650.568 326.08 648.25C328.08 645.909 330.659 644.114 333.818 642.864C337 641.591 340.682 640.955 344.864 640.955C347.773 640.955 350.557 641.295 353.216 641.977C355.898 642.659 358.273 643.716 360.341 645.148C362.432 646.58 364.08 648.42 365.284 650.67C366.489 652.898 367.091 655.568 367.091 658.682V694H353.318V686.739H352.909C352.068 688.375 350.943 689.818 349.534 691.068C348.125 692.295 346.432 693.261 344.455 693.966C342.477 694.648 340.193 694.989 337.602 694.989ZM341.761 684.966C343.898 684.966 345.784 684.545 347.42 683.705C349.057 682.841 350.341 681.682 351.273 680.227C352.205 678.773 352.67 677.125 352.67 675.284V669.727C352.216 670.023 351.591 670.295 350.795 670.545C350.023 670.773 349.148 670.989 348.17 671.193C347.193 671.375 346.216 671.545 345.239 671.705C344.261 671.841 343.375 671.966 342.58 672.08C340.875 672.33 339.386 672.727 338.114 673.273C336.841 673.818 335.852 674.557 335.148 675.489C334.443 676.398 334.091 677.534 334.091 678.898C334.091 680.875 334.807 682.386 336.239 683.432C337.693 684.455 339.534 684.966 341.761 684.966ZM397.653 694.852C393.676 694.852 390.074 693.83 386.847 691.784C383.642 689.716 381.097 686.682 379.21 682.682C377.347 678.659 376.415 673.727 376.415 667.886C376.415 661.886 377.381 656.898 379.312 652.92C381.244 648.92 383.813 645.932 387.017 643.955C390.244 641.955 393.778 640.955 397.619 640.955C400.551 640.955 402.994 641.455 404.949 642.455C406.926 643.432 408.517 644.659 409.722 646.136C410.949 647.591 411.881 649.023 412.517 650.432H412.96V624.182H427.449V694H413.131V685.614H412.517C411.835 687.068 410.869 688.511 409.619 689.943C408.392 691.352 406.79 692.523 404.812 693.455C402.858 694.386 400.472 694.852 397.653 694.852ZM402.256 683.295C404.597 683.295 406.574 682.659 408.188 681.386C409.824 680.091 411.074 678.284 411.938 675.966C412.824 673.648 413.267 670.932 413.267 667.818C413.267 664.705 412.835 662 411.972 659.705C411.108 657.409 409.858 655.636 408.222 654.386C406.585 653.136 404.597 652.511 402.256 652.511C399.869 652.511 397.858 653.159 396.222 654.455C394.585 655.75 393.347 657.545 392.506 659.841C391.665 662.136 391.244 664.795 391.244 667.818C391.244 670.864 391.665 673.557 392.506 675.898C393.369 678.216 394.608 680.034 396.222 681.352C397.858 682.648 399.869 683.295 402.256 683.295ZM488.207 641.636L469.901 694H453.537L435.23 641.636H450.571L461.446 679.102H461.991L472.832 641.636H488.207ZM495.639 694V641.636H510.162V694H495.639ZM502.935 634.886C500.776 634.886 498.923 634.17 497.378 632.739C495.855 631.284 495.094 629.545 495.094 627.523C495.094 625.523 495.855 623.807 497.378 622.375C498.923 620.92 500.776 620.193 502.935 620.193C505.094 620.193 506.935 620.92 508.457 622.375C510.003 623.807 510.776 625.523 510.776 627.523C510.776 629.545 510.003 631.284 508.457 632.739C506.935 634.17 505.094 634.886 502.935 634.886ZM565.364 656.568L552.068 657.386C551.841 656.25 551.352 655.227 550.602 654.318C549.852 653.386 548.864 652.648 547.636 652.102C546.432 651.534 544.989 651.25 543.307 651.25C541.057 651.25 539.159 651.727 537.614 652.682C536.068 653.614 535.295 654.864 535.295 656.432C535.295 657.682 535.795 658.739 536.795 659.602C537.795 660.466 539.511 661.159 541.943 661.682L551.42 663.591C556.511 664.636 560.307 666.318 562.807 668.636C565.307 670.955 566.557 674 566.557 677.773C566.557 681.205 565.545 684.216 563.523 686.807C561.523 689.398 558.773 691.42 555.273 692.875C551.795 694.307 547.784 695.023 543.239 695.023C536.307 695.023 530.784 693.58 526.67 690.693C522.58 687.784 520.182 683.83 519.477 678.83L533.761 678.08C534.193 680.193 535.239 681.807 536.898 682.92C538.557 684.011 540.682 684.557 543.273 684.557C545.818 684.557 547.864 684.068 549.409 683.091C550.977 682.091 551.773 680.807 551.795 679.239C551.773 677.92 551.216 676.841 550.125 676C549.034 675.136 547.352 674.477 545.08 674.023L536.011 672.216C530.898 671.193 527.091 669.42 524.591 666.898C522.114 664.375 520.875 661.159 520.875 657.25C520.875 653.886 521.784 650.989 523.602 648.557C525.443 646.125 528.023 644.25 531.341 642.932C534.682 641.614 538.591 640.955 543.068 640.955C549.682 640.955 554.886 642.352 558.682 645.148C562.5 647.943 564.727 651.75 565.364 656.568ZM599.361 695.023C594.065 695.023 589.486 693.898 585.622 691.648C581.781 689.375 578.815 686.216 576.724 682.17C574.634 678.102 573.588 673.386 573.588 668.023C573.588 662.614 574.634 657.886 576.724 653.841C578.815 649.773 581.781 646.614 585.622 644.364C589.486 642.091 594.065 640.955 599.361 640.955C604.656 640.955 609.224 642.091 613.065 644.364C616.929 646.614 619.906 649.773 621.997 653.841C624.088 657.886 625.134 662.614 625.134 668.023C625.134 673.386 624.088 678.102 621.997 682.17C619.906 686.216 616.929 689.375 613.065 691.648C609.224 693.898 604.656 695.023 599.361 695.023ZM599.429 683.773C601.838 683.773 603.849 683.091 605.463 681.727C607.077 680.341 608.293 678.455 609.111 676.068C609.952 673.682 610.372 670.966 610.372 667.92C610.372 664.875 609.952 662.159 609.111 659.773C608.293 657.386 607.077 655.5 605.463 654.114C603.849 652.727 601.838 652.034 599.429 652.034C596.997 652.034 594.952 652.727 593.293 654.114C591.656 655.5 590.418 657.386 589.577 659.773C588.759 662.159 588.349 664.875 588.349 667.92C588.349 670.966 588.759 673.682 589.577 676.068C590.418 678.455 591.656 680.341 593.293 681.727C594.952 683.091 596.997 683.773 599.429 683.773ZM634.577 694V641.636H648.656V650.773H649.202C650.156 647.523 651.759 645.068 654.009 643.409C656.259 641.727 658.849 640.886 661.781 640.886C662.509 640.886 663.293 640.932 664.134 641.023C664.974 641.114 665.713 641.239 666.349 641.398V654.284C665.668 654.08 664.724 653.898 663.52 653.739C662.315 653.58 661.213 653.5 660.213 653.5C658.077 653.5 656.168 653.966 654.486 654.898C652.827 655.807 651.509 657.08 650.531 658.716C649.577 660.352 649.099 662.239 649.099 664.375V694H634.577Z" fill="black"/>
</svg>
