<svg width="51" height="50" viewBox="0 0 51 50" fill="none" xmlns="http://www.w3.org/2000/svg">
<path d="M25.6732 2.60413C21.7828 2.60831 17.9605 3.62487 14.5821 5.55389C11.2037 7.4829 8.38541 10.2579 6.40443 13.6062C4.42345 16.9544 3.34794 20.7605 3.28365 24.6503C3.21936 28.5402 4.16851 32.3798 6.03776 35.7916L3.27734 47.3958L14.8815 44.6354C17.8745 46.2772 21.2032 47.2132 24.6132 47.3716C28.0233 47.5301 31.4244 46.907 34.5568 45.5498C37.6891 44.1926 40.4697 42.1373 42.6862 39.541C44.9026 36.9446 46.4962 33.876 47.3452 30.5695C48.1941 27.263 48.276 23.8062 47.5845 20.4633C46.8929 17.1203 45.4464 13.9797 43.3553 11.2814C41.2642 8.58305 38.584 6.39846 35.5194 4.89455C32.4548 3.39064 29.0869 2.60721 25.6732 2.60413ZM14.4753 12.7812H20.5794C20.8557 12.7812 21.1206 12.891 21.316 13.0863C21.5113 13.2817 21.6211 13.5466 21.6211 13.8229C21.5869 15.212 21.8203 16.5948 22.3086 17.8958C22.5189 18.3313 22.5651 18.828 22.4388 19.2948C22.3125 19.7617 22.0222 20.1673 21.6211 20.4375L19.4857 22.5208C20.4325 24.3698 21.6705 26.0545 23.1523 27.5104C24.5964 29.0163 26.2743 30.2791 28.1211 31.25L30.2044 29.1145C31.2461 28.0729 31.7253 28.0729 32.7461 28.427C34.0471 28.9153 35.4298 29.1487 36.819 29.1145C37.0912 29.1272 37.3488 29.241 37.5415 29.4337C37.7342 29.6264 37.848 29.884 37.8607 30.1562V36.2604C37.848 36.5326 37.7342 36.7902 37.5415 36.9829C37.3488 37.1755 37.0912 37.2894 36.819 37.302C30.6915 37.0351 24.8832 34.4949 20.5273 30.177C16.2027 25.8258 13.6613 20.0147 13.4023 13.8854C13.4048 13.5987 13.5177 13.3239 13.7175 13.1183C13.9173 12.9126 14.1887 12.7919 14.4753 12.7812Z" stroke="#E83100" stroke-width="2.5" stroke-linecap="round" stroke-linejoin="round"/>
</svg>
