<svg width="50" height="50" viewBox="0 0 50 50" fill="none" xmlns="http://www.w3.org/2000/svg">
<path d="M25 2.60416C21.1097 2.60834 17.2874 3.6249 13.9089 5.55392C10.5305 7.48293 7.71225 10.258 5.73127 13.6062C3.75029 16.9544 2.67478 20.7605 2.61049 24.6504C2.54621 28.5402 3.49535 32.3798 5.3646 35.7917L2.60419 47.3958L14.2084 44.6354C17.2013 46.2773 20.53 47.2132 23.9401 47.3717C27.3501 47.5302 30.7513 46.907 33.8836 45.5498C37.0159 44.1926 39.7966 42.1373 42.013 39.541C44.2295 36.9447 45.8231 33.876 46.672 30.5695C47.521 27.2631 47.6028 23.8063 46.9113 20.4633C46.2198 17.1203 44.7732 13.9797 42.6821 11.2814C40.5911 8.58308 37.9108 6.39849 34.8462 4.89458C31.7816 3.39067 28.4137 2.60724 25 2.60416ZM13.8021 12.7812H19.9063C20.1825 12.7812 20.4475 12.891 20.6428 13.0863C20.8382 13.2817 20.9479 13.5466 20.9479 13.8229C20.9138 15.2121 21.1472 16.5948 21.6354 17.8958C21.8457 18.3313 21.8919 18.828 21.7657 19.2949C21.6394 19.7617 21.3491 20.1674 20.9479 20.4375L18.8125 22.5208C19.7594 24.3698 20.9974 26.0545 22.4792 27.5104C23.9233 29.0163 25.6011 30.2791 27.4479 31.25L29.5313 29.1146C30.5729 28.0729 31.0521 28.0729 32.0729 28.4271C33.3739 28.9153 34.7567 29.1487 36.1459 29.1146C36.418 29.1273 36.6757 29.2411 36.8684 29.4337C37.061 29.6264 37.1748 29.8841 37.1875 30.1562V36.2604C37.1748 36.5326 37.061 36.7902 36.8684 36.9829C36.6757 37.1756 36.418 37.2894 36.1459 37.3021C30.0183 37.0351 24.2101 34.4949 19.8542 30.1771C15.5296 25.8258 12.9882 20.0148 12.7292 13.8854C12.7317 13.5987 12.8445 13.3239 13.0444 13.1183C13.2442 12.9127 13.5156 12.7919 13.8021 12.7812Z" stroke="#E83100" stroke-width="2" stroke-linecap="round" stroke-linejoin="round"/>
</svg>
